# xmcd
#
# Track frame offsets: 
#        150
#        14122
#        35570
#        55064
#        74949
#        96835
#        118938
#        140310
#        160952
#        182074
#        207052
#        225262
#        247652
#        270119
#        288779
#        307274
#
# Disc length: 4363 seconds
#
# Revision: 2
# Processed by: cddbd v1.5.2PL0 Copyright (c) Steve Scherf et al.
# Submitted via: ExactAudioCopy v1.0b3
#
DISCID=e1110910
DTITLE=EXILE - EXILE CATCHY BEST
DYEAR=2008
DGENRE=JPop
TTITLE0=Overture for EXILE PERFECT YEAR
TTITLE1=Choo Choo TRAIN
TTITLE2=Fly Away
TTITLE3=Together
TTITLE4=Carry On
TTITLE5=real world
TTITLE6=HERO
TTITLE7=EXIT
TTITLE8=Everything
TTITLE9=WON'T BE LONG feat.NEVER LAND
TTITLE10=SUMMER TIME LOVE
TTITLE11=時の描片 〜トキノカケラ〜
TTITLE12=I Believe
TTITLE13=Pure
TTITLE14=You're my sunshine
TTITLE15=銀河鉄道999 feat.VERBAL (m-flo)
EXTD=YEAR: 2008
EXTT0=
EXTT1=
EXTT2=
EXTT3=
EXTT4=
EXTT5=
EXTT6=
EXTT7=
EXTT8=
EXTT9=
EXTT10=
EXTT11=
EXTT12=
EXTT13=
EXTT14=
EXTT15=
PLAYORDER=
